<?xml version="1.0" standalone="no"?>
<!DOCTYPE svg PUBLIC "-//W3C//DTD SVG 20010904//EN"
 "http://www.w3.org/TR/2001/REC-SVG-20010904/DTD/svg10.dtd">
<svg version="1.0" xmlns="http://www.w3.org/2000/svg"
 width="100.000000pt" height="100.000000pt" viewBox="0 0 100.000000 100.000000"
 preserveAspectRatio="xMidYMid meet">
<metadata>
Created by potrace 1.14, written by Peter Selinger 2001-2017
</metadata>
<g transform="translate(0.000000,100.000000) scale(0.100000,-0.100000)"
fill="#000000" stroke="none">
<path d="M420 990 c0 -5 -18 -10 -40 -10 -22 0 -40 -4 -40 -10 0 -5 -13 -10
-30 -10 -16 0 -30 -4 -30 -10 0 -5 -7 -10 -16 -10 -9 0 -29 -13 -44 -30 -15
-16 -33 -30 -39 -30 -16 0 -61 -46 -61 -62 0 -8 -9 -20 -20 -28 -11 -8 -20
-21 -20 -30 0 -9 -9 -22 -20 -30 -12 -8 -20 -26 -20 -42 0 -15 -4 -28 -10 -28
-5 0 -10 -18 -10 -40 0 -22 -4 -40 -10 -40 -6 0 -10 -33 -10 -80 0 -47 4 -80
10 -80 6 0 10 -18 10 -40 0 -22 5 -40 10 -40 6 0 10 -13 10 -28 0 -16 8 -34
20 -42 11 -8 20 -21 20 -30 0 -9 9 -22 20 -30 11 -8 20 -20 20 -28 0 -16 45
-62 61 -62 6 0 24 -13 39 -30 15 -16 35 -30 44 -30 9 0 16 -4 16 -10 0 -5 14
-10 30 -10 21 0 30 5 30 16 0 18 -23 44 -40 44 -6 0 -26 16 -45 35 -34 34 -35
36 -35 116 0 77 -1 82 -30 109 -43 40 -43 100 0 140 26 25 30 35 30 84 0 31 5
56 10 56 6 0 10 9 10 20 0 11 5 20 10 20 6 0 10 7 10 15 0 20 85 105 105 105
8 0 15 5 15 10 0 6 9 10 20 10 11 0 20 5 20 10 0 6 37 10 90 10 53 0 90 -4 90
-10 0 -5 9 -10 20 -10 11 0 20 -4 20 -10 0 -5 7 -10 15 -10 9 0 36 -20 60 -45
25 -24 45 -51 45 -60 0 -8 5 -15 10 -15 6 0 10 -9 10 -20 0 -11 5 -20 10 -20
6 0 10 -25 10 -56 0 -49 4 -59 30 -84 24 -23 30 -36 30 -70 0 -34 -6 -47 -30
-70 -29 -27 -30 -32 -30 -109 0 -80 -1 -82 -35 -116 -19 -19 -39 -35 -45 -35
-17 0 -40 -26 -40 -44 0 -9 8 -16 20 -16 11 0 20 5 20 10 0 6 8 10 18 10 10 0
24 9 32 20 8 11 20 20 27 20 17 0 103 86 103 103 0 7 9 19 20 27 11 8 20 22
20 32 0 10 5 18 10 18 6 0 10 9 10 20 0 11 5 20 10 20 6 0 10 18 10 40 0 22 5
40 10 40 6 0 10 40 10 100 0 60 -4 100 -10 100 -5 0 -10 18 -10 40 0 22 -4 40
-10 40 -5 0 -10 9 -10 20 0 11 -4 20 -10 20 -5 0 -10 8 -10 18 0 10 -9 24 -20
32 -11 8 -20 20 -20 27 0 17 -86 103 -103 103 -7 0 -19 9 -27 20 -8 11 -22 20
-32 20 -10 0 -18 5 -18 10 0 6 -13 10 -30 10 -16 0 -30 5 -30 10 0 6 -13 10
-30 10 -16 0 -30 5 -30 10 0 6 -37 10 -90 10 -53 0 -90 -4 -90 -10z"/>
<path d="M440 770 c0 -5 -9 -10 -20 -10 -11 0 -20 -4 -20 -10 0 -5 -7 -10 -16
-10 -8 0 -22 -6 -30 -14 -21 -21 -17 -46 6 -46 11 0 20 -4 20 -10 0 -5 9 -10
20 -10 11 0 20 -4 20 -10 0 -6 37 -10 90 -10 53 0 90 4 90 10 0 6 9 10 20 10
11 0 20 5 20 10 0 6 9 10 20 10 12 0 20 7 20 16 0 20 -24 44 -44 44 -9 0 -16
5 -16 10 0 6 -9 10 -20 10 -11 0 -20 5 -20 10 0 6 -30 10 -70 10 -40 0 -70 -4
-70 -10z"/>
<path d="M280 580 l0 -60 230 0 230 0 0 60 c0 53 -2 60 -20 60 -11 0 -20 -4
-20 -10 0 -5 -9 -10 -20 -10 -11 0 -20 -4 -20 -10 0 -5 -9 -10 -20 -10 -11 0
-20 -4 -20 -10 0 -6 -43 -10 -110 -10 -67 0 -110 4 -110 10 0 6 -9 10 -20 10
-11 0 -20 5 -20 10 0 6 -9 10 -20 10 -11 0 -20 5 -20 10 0 6 -9 10 -20 10 -18
0 -20 -7 -20 -60z"/>
<path d="M233 445 c-7 -8 -13 -21 -13 -30 0 -13 23 -15 166 -15 130 0 168 -3
180 -14 16 -17 19 -66 4 -66 -15 0 -12 -29 4 -46 8 -8 22 -14 30 -14 13 0 16
13 16 70 l0 70 90 0 c75 0 90 3 90 16 0 42 -16 44 -292 44 -214 -1 -265 -3
-275 -15z"/>
<path d="M280 264 c0 -78 11 -104 44 -104 9 0 16 -4 16 -10 0 -6 63 -10 170
-10 107 0 170 4 170 10 0 6 7 10 16 10 33 0 44 26 44 104 l0 76 -30 0 c-29 0
-30 -2 -30 -45 0 -57 -32 -95 -80 -95 -33 0 -80 38 -80 65 0 8 -4 15 -10 15
-5 0 -10 14 -10 30 l0 30 -110 0 -110 0 0 -76z"/>
<path d="M400 54 c0 -44 21 -54 110 -54 89 0 110 10 110 54 l0 26 -110 0 -110
0 0 -26z"/>
</g>
</svg>
