<svg aria-hidden="true" style="position:absolute;width:0;height:0;overflow:hidden" xmlns="http://www.w3.org/2000/svg"><defs><symbol id="icon-close-btn" viewBox="0 0 32 32"><path d="M23.733 10.304 22.229 8.8l-5.963 5.963L10.303 8.8l-1.504 1.504 5.963 5.963-5.963 5.963 1.504 1.504 5.963-5.963 5.963 5.963 1.504-1.504-5.963-5.963 5.963-5.963z"/></symbol><symbol id="icon-menu-btn" viewBox="0 0 32 32"><path d="M6.4 11.733V9.6h19.2v2.133H6.4zm0 5.334h19.2v-2.133H6.4v2.133zm0 5.333h19.2v-2.133H6.4V22.4z"/></symbol><symbol id="icon-greated" viewBox="0 0 26 32"><path fill="none" stroke="#d41443" style="stroke:var(--color1, #d41443)" stroke-linejoin="round" stroke-linecap="round" stroke-width="6.4" d="M3.542 3.2 20.368 16 3.542 28.8"/></symbol><symbol id="icon-dots" viewBox="0 0 173 40"><path d="M106.667 20c0 11.046-8.954 20-20 20s-20-8.954-20-20 8.954-20 20-20 20 8.954 20 20zM40 20c0 11.046-8.954 20-20 20S0 31.046 0 20 8.954 0 20 0s20 8.954 20 20zM173.333 20c0 11.046-8.954 20-20 20s-20-8.954-20-20 8.954-20 20-20 20 8.954 20 20z"/></symbol><symbol id="icon-arrow" viewBox="0 0 40 40"><path d="m24.268 34.267 12.5-12.5c.453-.452.733-1.077.733-1.768s-.28-1.315-.733-1.767l-12.5-12.5a2.5 2.5 0 1 0-3.536 3.533l8.234 8.234H5.001a2.5 2.5 0 1 0 0 5h23.965l-8.233 8.232a2.494 2.494 0 0 0 0 3.535c.452.453 1.077.733 1.768.733s1.315-.28 1.768-.733z"/></symbol><symbol id="icon-person" viewBox="0 0 32 32"><path d="M16 16a5.333 5.333 0 1 0 0-10.666A5.333 5.333 0 1 0 16 16zm0 2.667c-3.561 0-10.667 1.787-10.667 5.333v1.333c0 .732.599 1.333 1.333 1.333h18.667c.732 0 1.333-.601 1.333-1.333V24c0-3.547-7.108-5.333-10.667-5.333z"/></symbol><symbol id="icon-phone" viewBox="0 0 32 32"><path d="m24.882 19.774-3.268-.373a2.552 2.552 0 0 0-2.11.732l-2.368 2.368c-3.669-1.894-6.585-4.81-8.427-8.372l-.051-.108 2.382-2.377a2.552 2.552 0 0 0 .731-2.122l.001.012-.373-3.243a2.578 2.578 0 0 0-2.557-2.276H6.613c-1.454 0-2.663 1.209-2.574 2.661.683 10.987 9.47 19.762 20.444 20.444 1.452.089 2.663-1.12 2.663-2.574v-2.238a2.549 2.549 0 0 0-2.253-2.532l-.012-.001z"/></symbol><symbol id="icon-privacy" viewBox="0 0 42 32"><path d="m6.262 15.206-.221-.211-.221.208-3.085 2.925.243.234 11.408 10.88.221-.211L38.863 5.892l-.243-.23-3.043-2.902-.221.211-20.97 19.987-8.125-7.75z"/></symbol><symbol id="icon-home" viewBox="0 0 38 32"><path d="M37.919 15.331c.696-.647.629-1.639-.15-2.215L20.607.424c-.779-.576-2.028-.564-2.79.027L.597 13.793c-.763.591-.8 1.581-.083 2.211l.432.38c.716.63 1.874.705 2.584.167l1.287-.974v14.261c0 .875.839 1.583 1.873 1.583h6.712c1.034 0 1.873-.708 1.873-1.583v-9.977h8.562v9.977c-.015.874.725 1.583 1.76 1.583h7.113c1.034 0 1.873-.708 1.873-1.583v-14.06l.794.589c.438.326 1.357.064 2.053-.583l.488-.453z"/></symbol><symbol id="icon-facebook" viewBox="0 0 16 32"><path d="M14.266 15.97H10.09v15.39H3.763V15.97H.754v-5.409h3.009v-3.5c0-2.503 1.182-6.422 6.384-6.422l4.687.02v5.25h-3.401c-.558 0-1.342.28-1.342 1.474v3.183h4.729l-.553 5.403z"/></symbol><symbol id="icon-github" viewBox="0 0 32 32"><path d="M16 .941C7.729.941.941 7.729.941 16c0 7.058 4.953 13.47 11.529 15.059v-4.982c-.652.143-1.251.147-1.915-.049-.89-.263-1.613-.855-2.15-1.759-.342-.577-.949-1.203-1.581-1.157l-.155-1.758c1.368-.117 2.551.833 3.254 2.014.312.525.671.832 1.132.968.446.131.924.068 1.481-.129.14-1.116.651-1.534 1.037-2.122v-.001c-3.922-.585-5.486-2.666-6.106-4.308-.822-2.181-.381-4.905 1.073-6.627.028-.034.079-.121.06-.183-.667-2.014.146-3.679.176-3.856.769.228.894-.229 3.342 1.258l.423.254c.177.105.121.045.298.032a12.77 12.77 0 0 1 3.16-.445 12.84 12.84 0 0 1 3.204.456l.137.014c-.012-.002.037-.009.12-.058 3.057-1.852 2.947-1.247 3.767-1.513.03.177.831 1.87.172 3.858-.089.274 2.65 2.782 1.132 6.809-.62 1.643-2.184 3.724-6.106 4.309v.001c.503.766 1.107 1.174 1.104 2.755v6.219C26.106 29.47 31.058 23.058 31.058 16c0-8.271-6.787-15.059-15.059-15.059z"/></symbol><symbol id="icon-telegram" viewBox="0 0 46 32"><path d="m16.009 21.048-.675 8.86c.966 0 1.384-.387 1.885-.852l4.527-4.038 9.381 6.412c1.72.895 2.933.424 3.397-1.477l6.157-26.929.002-.002c.546-2.374-.92-3.302-2.596-2.72L1.893 13.235c-2.47.895-2.433 2.18-.42 2.762l9.253 2.686L32.22 6.131c1.011-.625 1.931-.279 1.175.346l-17.386 14.57z"/></symbol><symbol id="icon-bracket" viewBox="0 0 26 32"><path fill="none" stroke="#fff" style="stroke:var(--color1, #ffffff)" stroke-linejoin="round" stroke-linecap="round" stroke-width="6.4" d="M3.542 3.2 20.368 16 3.542 28.8"/></symbol>
<symbol id="icon-basket" viewBox="0 0 46 40">
<path d="M42.857 17.143c1.585 0 2.857 1.272 2.857 2.857s-1.272 2.857-2.857 2.857h-0.335l-2.567 14.777c-0.246 1.362-1.429 2.366-2.813 2.366h-28.571c-1.384 0-2.567-1.004-2.812-2.366l-2.567-14.777h-0.335c-1.585 0-2.857-1.272-2.857-2.857s1.272-2.857 2.857-2.857h40zM10.826 35c0.781-0.067 1.384-0.759 1.317-1.54l-0.714-9.286c-0.067-0.781-0.759-1.384-1.54-1.317s-1.384 0.759-1.317 1.54l0.714 9.286c0.067 0.737 0.692 1.317 1.429 1.317h0.112zM20 33.571v-9.286c0-0.781-0.647-1.429-1.429-1.429s-1.429 0.647-1.429 1.429v9.286c0 0.781 0.647 1.429 1.429 1.429s1.429-0.647 1.429-1.429zM28.571 33.571v-9.286c0-0.781-0.647-1.429-1.429-1.429s-1.429 0.647-1.429 1.429v9.286c0 0.781 0.647 1.429 1.429 1.429s1.429-0.647 1.429-1.429zM36.429 33.683l0.714-9.286c0.067-0.781-0.536-1.473-1.317-1.54s-1.473 0.536-1.54 1.317l-0.714 9.286c-0.067 0.781 0.536 1.473 1.317 1.54h0.112c0.737 0 1.362-0.58 1.429-1.317zM10.625 6.518l-2.076 9.196h-2.946l2.254-9.844c0.58-2.612 2.879-4.442 5.558-4.442h3.728c0-0.781 0.647-1.429 1.429-1.429h8.571c0.781 0 1.429 0.647 1.429 1.429h3.728c2.679 0 4.978 1.83 5.558 4.442l2.254 9.844h-2.946l-2.076-9.196c-0.313-1.317-1.451-2.232-2.79-2.232h-3.728c0 0.781-0.647 1.429-1.429 1.429h-8.571c-0.781 0-1.429-0.647-1.429-1.429h-3.728c-1.339 0-2.478 0.915-2.79 2.232z"></path>
</symbol></defs></svg>