<svg aria-hidden="true" style="position: absolute; width: 0; height: 0; overflow: hidden;" version="1.1" xmlns="http://www.w3.org/2000/svg" xmlns:xlink="http://www.w3.org/1999/xlink">
<defs>
<symbol id="icon-close-btn" viewBox="0 0 32 32">
<path d="M23.733 10.304l-1.504-1.504-5.963 5.963-5.963-5.963-1.504 1.504 5.963 5.963-5.963 5.963 1.504 1.504 5.963-5.963 5.963 5.963 1.504-1.504-5.963-5.963 5.963-5.963z"></path>
</symbol>
<symbol id="icon-menu-btn" viewBox="0 0 32 32">
<path d="M6.4 11.733v-2.133h19.2v2.133h-19.2zM6.4 17.067h19.2v-2.133h-19.2v2.133zM6.4 22.4h19.2v-2.133h-19.2v2.133z"></path>
</symbol>
<symbol id="icon-greated" viewBox="0 0 26 32">
<path fill="none" stroke="#d41443" style="stroke: var(--color1, #d41443)" stroke-linejoin="round" stroke-linecap="round" stroke-miterlimit="4" stroke-width="6.4" d="M3.542 3.2l16.826 12.8-16.826 12.8"></path>
</symbol>
<symbol id="icon-dots" viewBox="0 0 173 40">
<path d="M106.667 20c0 11.046-8.954 20-20 20s-20-8.954-20-20c0-11.046 8.954-20 20-20s20 8.954 20 20z"></path>
<path d="M40 20c0 11.046-8.954 20-20 20s-20-8.954-20-20c0-11.046 8.954-20 20-20s20 8.954 20 20z"></path>
<path d="M173.333 20c0 11.046-8.954 20-20 20s-20-8.954-20-20c0-11.046 8.954-20 20-20s20 8.954 20 20z"></path>
</symbol>
<symbol id="icon-arrow" viewBox="0 0 40 40">
<path d="M24.268 34.267l12.5-12.5c0.453-0.452 0.733-1.077 0.733-1.768s-0.28-1.315-0.733-1.767l-12.5-12.5c-0.455-0.471-1.092-0.764-1.799-0.764-1.381 0-2.5 1.119-2.5 2.5 0 0.705 0.293 1.343 0.763 1.797l8.234 8.234h-23.965c-1.381 0-2.5 1.119-2.5 2.5s1.119 2.5 2.5 2.5v0h23.965l-8.233 8.232c-0.488 0.488-0.733 1.128-0.733 1.768s0.244 1.28 0.733 1.767c0.452 0.453 1.077 0.733 1.768 0.733s1.315-0.28 1.768-0.733v0z"></path>
</symbol>
</defs>
</svg>