<svg aria-hidden="true" style="position: absolute; width: 0; height: 0; overflow: hidden;" version="1.1" xmlns="http://www.w3.org/2000/svg" xmlns:xlink="http://www.w3.org/1999/xlink">
	<defs>
		<symbol id="icon-close-btn" viewBox="0 0 32 32">
			<path d="M23.733 10.304l-1.504-1.504-5.963 5.963-5.963-5.963-1.504 1.504 5.963 5.963-5.963 5.963 1.504 1.504 5.963-5.963 5.963 5.963 1.504-1.504-5.963-5.963 5.963-5.963z">
			</path>
		</symbol>
		<symbol id="icon-menu-btn" viewBox="0 0 32 32">
			<path d="M6.4 11.733v-2.133h19.2v2.133h-19.2zM6.4 17.067h19.2v-2.133h-19.2v2.133zM6.4 22.4h19.2v-2.133h-19.2v2.133z">
			</path>
		</symbol>
		<symbol id="icon-greated" viewBox="0 0 26 32">
			<path fill="none" stroke="#d41443" style="stroke: var(--color1, #d41443)" stroke-linejoin="round" stroke-linecap="round" stroke-miterlimit="4" stroke-width="6.4" d="M3.542 3.2l16.826 12.8-16.826 12.8">
			</path>
		</symbol>
		<symbol id="icon-dots" viewBox="0 0 173 40">
			<path d="M106.667 20c0 11.046-8.954 20-20 20s-20-8.954-20-20c0-11.046 8.954-20 20-20s20 8.954 20 20z">
			</path>
			<path d="M40 20c0 11.046-8.954 20-20 20s-20-8.954-20-20c0-11.046 8.954-20 20-20s20 8.954 20 20z">
			</path>
			<path d="M173.333 20c0 11.046-8.954 20-20 20s-20-8.954-20-20c0-11.046 8.954-20 20-20s20 8.954 20 20z">
			</path>
		</symbol>
		<symbol id="icon-arrow" viewBox="0 0 40 40">
			<path d="M24.268 34.267l12.5-12.5c0.453-0.452 0.733-1.077 0.733-1.768s-0.28-1.315-0.733-1.767l-12.5-12.5c-0.455-0.471-1.092-0.764-1.799-0.764-1.381 0-2.5 1.119-2.5 2.5 0 0.705 0.293 1.343 0.763 1.797l8.234 8.234h-23.965c-1.381 0-2.5 1.119-2.5 2.5s1.119 2.5 2.5 2.5v0h23.965l-8.233 8.232c-0.488 0.488-0.733 1.128-0.733 1.768s0.244 1.28 0.733 1.767c0.452 0.453 1.077 0.733 1.768 0.733s1.315-0.28 1.768-0.733v0z">
			</path>
		</symbol>
		<symbol id="icon-person" viewBox="0 0 32 32">
			<path d="M16 16a5.333 5.333 0 1 0 0-10.666A5.333 5.333 0 1 0 16 16zm0 2.667c-3.561 0-10.667 1.787-10.667 5.333v1.333c0 .732.599 1.333 1.333 1.333h18.667c.732 0 1.333-.601 1.333-1.333V24c0-3.547-7.108-5.333-10.667-5.333z" />
		</symbol>
		<symbol id="icon-phone" viewBox="0 0 32 32">
			<path d="m24.882 19.774-3.268-.373a2.552 2.552 0 0 0-2.11.732l-2.368 2.368c-3.669-1.894-6.585-4.81-8.427-8.372l-.051-.108 2.382-2.377a2.552 2.552 0 0 0 .731-2.122l.001.012-.373-3.243a2.578 2.578 0 0 0-2.557-2.276H6.613c-1.454 0-2.663 1.209-2.574 2.661.683 10.987 9.47 19.762 20.444 20.444 1.452.089 2.663-1.12 2.663-2.574v-2.238a2.549 2.549 0 0 0-2.253-2.532l-.012-.001z" />
		</symbol>
		<symbol id="icon-privacy" viewBox="0 0 42 32">
			<path d="M6.262 15.206l-0.221-0.211-0.221 0.208-3.085 2.925 0.243 0.234 11.408 10.88 0.221-0.211 24.256-23.139-0.243-0.23-3.043-2.902-0.221 0.211-20.97 19.987-8.125-7.75z">
			</path>
		</symbol>
		<symbol id="icon-home" viewBox="0 0 38 32">
			<path d="M37.919 15.331c0.696-0.647 0.629-1.639-0.15-2.215l-17.162-12.692c-0.779-0.576-2.028-0.564-2.79 0.027l-17.22 13.342c-0.763 0.591-0.8 1.581-0.083 2.211l0.432 0.38c0.716 0.63 1.874 0.705 2.584 0.167l1.287-0.974v14.261c0 0.875 0.839 1.583 1.873 1.583h6.712c1.034 0 1.873-0.708 1.873-1.583v-9.977h8.562v9.977c-0.015 0.874 0.725 1.583 1.76 1.583h7.113c1.034 0 1.873-0.708 1.873-1.583v-14.060c0 0 0.356 0.263 0.794 0.589s1.357 0.064 2.053-0.583l0.488-0.453z">
			</path>
		</symbol>
		<symbol id="icon-facebook" viewBox="0 0 16 32">
		<path d="M14.266 15.97h-4.176v15.39h-6.327v-15.39h-3.009v-5.409h3.009v-3.5c0-2.503 1.182-6.422 6.384-6.422l4.687 0.020v5.25h-3.401c-0.558 0-1.342 0.28-1.342 1.474v3.183h4.729l-0.553 5.403z"></path>
		</symbol>
		<symbol id="icon-github" viewBox="0 0 32 32">
		<path d="M16 0.941c-8.271 0-15.059 6.788-15.059 15.059 0 7.058 4.953 13.47 11.529 15.059v-4.982c-0.652 0.143-1.251 0.147-1.915-0.049-0.89-0.263-1.613-0.855-2.15-1.759-0.342-0.577-0.949-1.203-1.581-1.157l-0.155-1.758c1.368-0.117 2.551 0.833 3.254 2.014 0.312 0.525 0.671 0.832 1.132 0.968 0.446 0.131 0.924 0.068 1.481-0.129 0.14-1.116 0.651-1.534 1.037-2.122v-0.001c-3.922-0.585-5.486-2.666-6.106-4.308-0.822-2.181-0.381-4.905 1.073-6.627 0.028-0.034 0.079-0.121 0.060-0.183-0.667-2.014 0.146-3.679 0.176-3.856 0.769 0.228 0.894-0.229 3.342 1.258l0.423 0.254c0.177 0.105 0.121 0.045 0.298 0.032 1.022-0.278 2.099-0.431 3.16-0.445 1.069 0.014 2.14 0.167 3.204 0.456l0.137 0.014c-0.012-0.002 0.037-0.009 0.12-0.058 3.057-1.852 2.947-1.247 3.767-1.513 0.030 0.177 0.831 1.87 0.172 3.858-0.089 0.274 2.65 2.782 1.132 6.809-0.62 1.643-2.184 3.724-6.106 4.309v0.001c0.503 0.766 1.107 1.174 1.104 2.755v6.219c6.577-1.589 11.529-8.001 11.529-15.059 0-8.271-6.787-15.059-15.059-15.059v0z"></path>
		</symbol>
		<symbol id="icon-telegram" viewBox="0 0 46 32">
		<path d="M16.009 21.048l-0.675 8.86c0.966 0 1.384-0.387 1.885-0.852l4.527-4.038 9.381 6.412c1.72 0.895 2.933 0.424 3.397-1.477l6.157-26.929 0.002-0.002c0.546-2.374-0.92-3.302-2.596-2.72l-36.194 12.933c-2.47 0.895-2.433 2.18-0.42 2.762l9.253 2.686 21.494-12.552c1.011-0.625 1.931-0.279 1.175 0.346l-17.386 14.57z"></path>
		</symbol>
	</defs>
</svg>
